{
	"patcher" : 	{
		"fileversion" : 1,
		"appversion" : 		{
			"major" : 7,
			"minor" : 3,
			"revision" : 4,
			"architecture" : "x86",
			"modernui" : 1
		}
,
		"rect" : [ 134.0, 126.0, 1296.0, 1211.0 ],
		"bglocked" : 0,
		"openinpresentation" : 0,
		"default_fontsize" : 12.0,
		"default_fontface" : 0,
		"default_fontname" : "Arial",
		"gridonopen" : 1,
		"gridsize" : [ 15.0, 15.0 ],
		"gridsnaponopen" : 1,
		"objectsnaponopen" : 1,
		"statusbarvisible" : 2,
		"toolbarvisible" : 1,
		"lefttoolbarpinned" : 0,
		"toptoolbarpinned" : 0,
		"righttoolbarpinned" : 0,
		"bottomtoolbarpinned" : 0,
		"toolbars_unpinned_last_save" : 0,
		"tallnewobj" : 0,
		"boxanimatetime" : 200,
		"enablehscroll" : 1,
		"enablevscroll" : 1,
		"devicewidth" : 0.0,
		"description" : "",
		"digest" : "",
		"tags" : "",
		"style" : "",
		"subpatcher_template" : "",
		"boxes" : [ 			{
				"box" : 				{
					"id" : "obj-10",
					"linecount" : 4,
					"maxclass" : "comment",
					"numinlets" : 1,
					"numoutlets" : 0,
					"patching_rect" : [ 257.0, 968.0, 194.0, 60.0 ],
					"style" : "",
					"text" : "There may be more succinct ways to write such descriptors, but I think this way is the clearest that I've found."
				}

			}
, 			{
				"box" : 				{
					"id" : "obj-53",
					"linecount" : 2,
					"maxclass" : "comment",
					"numinlets" : 1,
					"numoutlets" : 0,
					"patching_rect" : [ 228.0, 83.286255, 192.0, 33.0 ],
					"style" : "",
					"text" : "patcher args: a list of point names [/point1,.../pointN]"
				}

			}
, 			{
				"box" : 				{
					"id" : "obj-50",
					"maxclass" : "comment",
					"numinlets" : 1,
					"numoutlets" : 0,
					"patching_rect" : [ 60.5, 83.286255, 63.0, 20.0 ],
					"style" : "",
					"text" : "data input"
				}

			}
, 			{
				"box" : 				{
					"id" : "obj-26",
					"maxclass" : "newobj",
					"numinlets" : 2,
					"numoutlets" : 1,
					"outlettype" : [ "FullPacket" ],
					"patching_rect" : [ 23.5, 226.5, 63.0, 22.0 ],
					"style" : "",
					"text" : "o.union"
				}

			}
, 			{
				"box" : 				{
					"id" : "obj-9",
					"maxclass" : "comment",
					"numinlets" : 1,
					"numoutlets" : 0,
					"patching_rect" : [ 491.0, 89.786255, 150.0, 20.0 ],
					"style" : "",
					"text" : "input for list of points"
				}

			}
, 			{
				"box" : 				{
					"comment" : "",
					"id" : "obj-5",
					"index" : 0,
					"maxclass" : "inlet",
					"numinlets" : 0,
					"numoutlets" : 1,
					"outlettype" : [ "" ],
					"patching_rect" : [ 441.5, 84.786255, 30.0, 30.0 ],
					"style" : ""
				}

			}
, 			{
				"box" : 				{
					"id" : "obj-6",
					"maxclass" : "newobj",
					"numinlets" : 1,
					"numoutlets" : 2,
					"outlettype" : [ "", "" ],
					"patching_rect" : [ 149.0, 112.866699, 74.0, 22.0 ],
					"style" : "",
					"text" : "patcherargs"
				}

			}
, 			{
				"box" : 				{
					"id" : "obj-8",
					"maxclass" : "newobj",
					"numinlets" : 1,
					"numoutlets" : 1,
					"outlettype" : [ "bang" ],
					"patching_rect" : [ 149.0, 83.286255, 60.0, 22.0 ],
					"style" : "",
					"text" : "loadbang"
				}

			}
, 			{
				"box" : 				{
					"id" : "obj-31",
					"maxclass" : "newobj",
					"numinlets" : 1,
					"numoutlets" : 1,
					"outlettype" : [ "FullPacket" ],
					"patching_rect" : [ 67.5, 188.115753, 85.0, 22.0 ],
					"style" : "",
					"text" : "o.pack /points"
				}

			}
, 			{
				"box" : 				{
					"fontface" : 0,
					"fontsize" : 12.0,
					"id" : "obj-2",
					"linecount" : 43,
					"maxclass" : "o.expr.codebox",
					"numinlets" : 1,
					"numoutlets" : 2,
					"outlettype" : [ "FullPacket", "FullPacket" ],
					"patching_rect" : [ 23.5, 266.0, 921.0, 603.0 ],
					"text" : "# Determine whether the points we expect as input exist in the current bundle\n/Npnts = length(/points),                                             # how many points are we processing?\n/addr_in = \"/modosc/points\"+/points+\"/pos\",                           # the list of input addresses we expect in the bundle\n/addr_out1 = \"/modosc/points\"+/points+\"/sum\",                         # list of addresses for where we will put the outputs\n/addr_out2 = \"/modosc/points\"+/points+\"/flip\",                        # we could generate more than one output\n/process = map(lambda([in], /tmp=value(in), bound(/tmp)), /addr_in),  # test whether each input address has data bound to it \n/counter = aseq(0, /Npnts-1),                                         # a list of indeces [0,..,N-1]  \n\n# Define a function which performs the action of this descriptor on a single point\n/fnProcess = \"lambda([index],        # input: the index of the point in the lists of points we created above\n  /addr_src = /addr_in[[index]],     # the address where we expect to find the input data\n  /addr_res1 = /addr_out1[[index]],  # the address where we will put the /sum result\n  /addr_res2 = /addr_out2[[index]],  # the address where we will put the /flip result\n  /indata = value(/addr_src),        # the actual input data (position in this case)\n  \n  # Calculate /sum\n  /tmp_x = /indata[[0]],\n  /tmp_y = /indata[[1]],\n  /tmp_z = /indata[[2]],\n  /sum = /tmp_x+  /tmp_y + /tmp_z,\n  \n  # /sum = sum(/indata),            # this should also work\n  # /sum = sum(value(/addr_src)),\t  # not sure this would work\n\n  # Calculate /flip\n  /flip_out = nfill(3, 0.),      # sometimes if we want to assign values to a new array we need to create the array first \n  /flip_out[[1]] = /indata[[2]],\n  /flip_out[[2]] = /indata[[1]],\n\n  # Assign the outputs to the actual output address\n  assign( value(/addr_res1), /sum),          # /sum\n  assign( value(/addr_res2), /flip_out)      # /flip\n)\",\n\n# Apply the processing function using the list of indeces and whether the data are bound, as indicated in /process\n# (This is where the actual processing of the data is initiated!) \nmap(lambda([body_idx,process], if(process, apply(readstring(/fnProcess), body_idx))), /counter, /process),\n\n# Delete all the addresses we defined. If we don't, they can cause trouble later in the stream\ndelete(/Npnts), delete(/addr_in), delete(/addr_out1), delete(/addr_out2), delete(/process), delete(/counter), delete(/tmp),\ndelete(/addr_src), delete(/addr_res1), delete(/addr_res2), delete(/indata),\ndelete(/tmp_x), delete(/tmp_y), delete(/tmp_z),\ndelete(/sum), delete(/flip_out), delete(/fnProcess), delete(/points)",
					"textcolor" : [ 0.0, 0.0, 0.0, 1.0 ]
				}

			}
, 			{
				"box" : 				{
					"id" : "obj-3",
					"linecount" : 3,
					"maxclass" : "comment",
					"numinlets" : 1,
					"numoutlets" : 0,
					"patching_rect" : [ 23.5, 17.866699, 768.0, 47.0 ],
					"style" : "",
					"text" : "This is a template for processing a list of points. This example does two things:\n1) creates a new attribute for each point called '/sum' which is the sum of the 3 position coordinates.\n2) creates a new attribute for each point called '/flip' which zeros the x coordinate, and switches the y and z coordinates "
				}

			}
, 			{
				"box" : 				{
					"comment" : "",
					"id" : "obj-4",
					"index" : 0,
					"maxclass" : "outlet",
					"numinlets" : 1,
					"numoutlets" : 0,
					"patching_rect" : [ 23.5, 1037.0, 30.0, 30.0 ],
					"style" : ""
				}

			}
, 			{
				"box" : 				{
					"comment" : "",
					"id" : "obj-1",
					"index" : 0,
					"maxclass" : "inlet",
					"numinlets" : 0,
					"numoutlets" : 1,
					"outlettype" : [ "" ],
					"patching_rect" : [ 23.5, 77.764816, 30.0, 30.0 ],
					"style" : ""
				}

			}
 ],
		"lines" : [ 			{
				"patchline" : 				{
					"destination" : [ "obj-26", 0 ],
					"source" : [ "obj-1", 0 ]
				}

			}
, 			{
				"patchline" : 				{
					"destination" : [ "obj-4", 0 ],
					"source" : [ "obj-2", 0 ]
				}

			}
, 			{
				"patchline" : 				{
					"destination" : [ "obj-2", 0 ],
					"source" : [ "obj-26", 0 ]
				}

			}
, 			{
				"patchline" : 				{
					"destination" : [ "obj-26", 1 ],
					"source" : [ "obj-31", 0 ]
				}

			}
, 			{
				"patchline" : 				{
					"destination" : [ "obj-31", 0 ],
					"midpoints" : [ 451.0, 169.991226, 77.0, 169.991226 ],
					"source" : [ "obj-5", 0 ]
				}

			}
, 			{
				"patchline" : 				{
					"destination" : [ "obj-31", 0 ],
					"midpoints" : [ 158.5, 150.491226, 77.0, 150.491226 ],
					"source" : [ "obj-6", 0 ]
				}

			}
, 			{
				"patchline" : 				{
					"destination" : [ "obj-6", 0 ],
					"source" : [ "obj-8", 0 ]
				}

			}
 ],
		"dependency_cache" : [ 			{
				"name" : "o.expr.codebox.mxo",
				"type" : "iLaX"
			}
, 			{
				"name" : "o.pack.mxo",
				"type" : "iLaX"
			}
, 			{
				"name" : "o.union.mxo",
				"type" : "iLaX"
			}
 ],
		"autosave" : 0,
		"styles" : [ 			{
				"name" : "filtergraphBronze",
				"default" : 				{
					"bgcolor" : [ 0.285714, 0.256629, 0.217237, 1.0 ],
					"color" : [ 0.010881, 0.909804, 0.896768, 1.0 ]
				}
,
				"parentstyle" : "",
				"multi" : 0
			}
, 			{
				"name" : "ksliderWhite",
				"default" : 				{
					"color" : [ 1.0, 1.0, 1.0, 1.0 ]
				}
,
				"parentstyle" : "",
				"multi" : 0
			}
, 			{
				"name" : "newobjBlue-1",
				"default" : 				{
					"accentcolor" : [ 0.317647, 0.654902, 0.976471, 1.0 ]
				}
,
				"parentstyle" : "",
				"multi" : 0
			}
, 			{
				"name" : "newobjCyan-1",
				"default" : 				{
					"accentcolor" : [ 0.029546, 0.773327, 0.821113, 1.0 ]
				}
,
				"parentstyle" : "",
				"multi" : 0
			}
, 			{
				"name" : "newobjGreen-1",
				"default" : 				{
					"accentcolor" : [ 0.0, 0.533333, 0.168627, 1.0 ]
				}
,
				"parentstyle" : "",
				"multi" : 0
			}
, 			{
				"name" : "newobjRed-1",
				"default" : 				{
					"accentcolor" : [ 0.784314, 0.145098, 0.023529, 1.0 ]
				}
,
				"parentstyle" : "",
				"multi" : 0
			}
, 			{
				"name" : "newobjYellow-1",
				"default" : 				{
					"accentcolor" : [ 0.82517, 0.78181, 0.059545, 1.0 ],
					"fontsize" : [ 12.059008 ]
				}
,
				"parentstyle" : "",
				"multi" : 0
			}
, 			{
				"name" : "numberGold-1",
				"default" : 				{
					"accentcolor" : [ 0.764706, 0.592157, 0.101961, 1.0 ]
				}
,
				"parentstyle" : "",
				"multi" : 0
			}
, 			{
				"name" : "scope~001",
				"default" : 				{
					"accentcolor" : [ 0.439216, 0.447059, 0.47451, 1.0 ],
					"color" : [ 0.960784, 0.827451, 0.156863, 1.0 ]
				}
,
				"parentstyle" : "",
				"multi" : 0
			}
 ]
	}

}
